# xmcd CD database file
#
# Track frame offsets:
#	150
#	22971
#	44196
#	63704
#	85356
#	103543
#	130425
#	156110
#	179914
#
# Disc length: 2463 seconds
#
# Revision: 0
# Processed by: cddbd v1.5.1PL0 Copyright (c) Steve Scherf et al.
# Submitted via: CDex 1.51
#
DISCID=84099d09
DTITLE=Almendra - Pan Con Salsa
DYEAR=1997
DGENRE=Salsa
TTITLE0=Para Fulana de Tal
TTITLE1=Pan con Salsa
TTITLE2=Chachacha para CLus
TTITLE3=On Fire
TTITLE4=Déjame Recordar
TTITLE5=La Mentira
TTITLE6=Madein Caribe
TTITLE7=Cascara de Banana
TTITLE8=Que Rico se Mueve
EXTD=YEAR: 1997
EXTT0=
EXTT1=
EXTT2=
EXTT3=
EXTT4=
EXTT5=
EXTT6=
EXTT7=
EXTT8=
PLAYORDER=
